<svg width="49" height="85" viewBox="0 0 49 85" fill="none" xmlns="http://www.w3.org/2000/svg">
<rect width="49" height="85" fill="#F3EFE6"/>
<path fill-rule="evenodd" clip-rule="evenodd" d="M0 85H49V0H0V85ZM16.273 9C17.671 10.1 19.237 11 19.753 11C20.268 11 21.505 11.9 22.5 13C23.495 14.1 23.845 15 23.277 15C22.71 15 21.685 14.325 21 13.5C20.315 12.675 19.205 12 18.533 12C17.86 12 16.495 11.1 15.5 10C14.505 8.9 13.35 8 12.935 8C12.519 8 9.889 9.81 7.09 12.023C3.676 14.722 2.005 16.78 2.015 18.273C2.048 23.089 4.745 24.419 16.5 25.417C30.163 26.576 40.437 28.118 41.745 29.204C42.73 30.021 43 28.82 43 23.622C43 16.903 42.674 16.288 40.006 17.975C38.906 18.671 37.672 18.105 35.322 15.827C33.185 13.756 32 11.5 30.424 13.391C29.815 14 29 13.5 29.964 12.544C31.434 10.772 34.064 11.825 36.362 15.106C37.513 16.749 38.46 17.058 40.786 16.547C42.827 16.099 43.907 16.315 44.263 17.242C45.31 19.97 45.051 77.035 43.983 79.031C42.99 80.888 41.801 81 23.165 81C9.126 81 3.052 80.652 2.2 79.8C1.317 78.917 1 70.21 1 46.846V15.091L6.25 11.062C9.138 8.846 12.002 7.025 12.615 7.016C13.228 7.007 14.874 7.9 16.273 9ZM15.5 12C16.495 13.1 17.831 14 18.467 14C19.673 14 24.461 19.873 23.796 20.537C22.927 21.406 13 15.972 13 14.628C13 13.822 12.727 12.452 12.393 11.582C11.543 9.368 13.336 9.609 15.5 12ZM38.39 21.933C37.419 22.927 32.476 18.109 32.201 15.9C31.936 13.772 32.294 13.954 35.358 17.5C37.259 19.7 38.623 21.695 38.39 21.933ZM29.49 18.99C32.841 22.487 32.636 23.006 28.357 21.848C25.254 21.009 23.462 18.68 24.556 16.91C25.476 15.42 26.472 15.84 29.49 18.99Z" fill="#233D2C"/>
<path d="M16.1731 72.713C16.3611 75.071 16.8351 77 16.5001 77C16.1651 77 13.7671 75.973 11.8981 74.718C7.00007 71.5 6.75007 67.387 9.54207 65.346C11.1113 64.1983 10.4455 63.4069 8.07663 60.5911L7.99998 60.5C4.99997 58 4.70646 52.8643 6.34704 48.937C8.96104 42.68 12.77 39.2 20 37C21.378 36.581 24.167 36.047 25.5 36C25.5 36 29 35.5 28.5 36C28 36.5 26.5 38.5 26.5 38.5C21.91 43.52 19.4031 51 22.5001 51C23.3251 51 23.5 49.825 23.5 49C23.5 47.5 25.1111 48 28.0001 48C30.2001 48 33.268 47.5 33 48.5C33 49.05 31.4201 50 30.7111 50C30.0031 50 27.6581 50.9 25.5001 52C20 56.5 13.5 54.475 13.5 49.5C13.5 48.122 13.3991 47 12.5001 47C11.5081 47 11.5 48.065 11.5 50C10.5 53.5 14.5 57 19.5 57C21.087 57 19.5521 57.408 17.7611 62.713C16.6481 66.01 15.9771 70.238 16.1731 72.713Z" fill="#B86E4B"/>
<path d="M3.90802 65.885C3.42502 65.123 2.50012 62.5 2.50005 61C2 58 2.49997 58.5 4.96803 61.471C6.54503 62.898 7.49999 63 5.86003 65.2609C4.99503 66.8789 5.28428 68.0562 3.90802 65.885Z" fill="#3D251A"/>
<path d="M12.513 78.691C16 80.5 13.825 79.95 8.99998 80C1.66866 80.076 2.49996 80.5 2.49997 73.5L2.49993 69.5C2.5 69 4.51097 71.688 6.64497 73.75C8.77897 75.813 11.42 78.036 12.513 78.691Z" fill="#3D2614"/>
<path d="M36.0619 77.462C39.1239 74.924 38.5 72 38 68C34.903 62.609 38.9999 64 41.3649 66.278C43.7299 68.556 42.9999 70 42.9999 73.5C42.9999 77 43.4999 79.5 42.4999 79.5C41.4999 79.5 43.9998 79.5 38.9999 79.5C34.0001 79.5 33 80 36.0619 77.462Z" fill="#432518"/>
<path d="M42 33.551C42 37 38.986 38 35.929 38C34.318 38 33.5 38.1879 33.5 38.4999C33.5 39.5569 34.219 40.791 35.71 42.817C37.2 44.843 38.55 46.688 38.71 46.917C39.674 48.3 39.884 45.8249 39 43.4999C35 37.9999 37.5 40.9999 40.75 39.5569L43 38.865V51.468C43 63.862 42.966 64.052 40.951 62.974C39.823 62.37 37.686 62.017 36.201 62.188C33.337 62.519 33.322 62.593 34.59 70.193C35.105 73.286 34.79 74.301 32.648 76.443C29.845 79.246 26.372 79.724 23.59 77.689C21.256 75.983 20.394 68.365 21.989 63.533C23.519 58.897 28.602 52.9999 31.068 52.9999C33.156 52.9999 35 50.2009 35 47.0309C35 45.0889 34.623 44.981 30 45.594C22 47 23.65 45.4169 28.5 40.5669C32.293 36.7729 32.903 34.5609 30.418 33.6069C27.862 32.6259 24.715 32.897 18.932 34.594C14.753 35.821 12.289 37.43 8.25 41.573L2.5 49V27L10.75 28.649C15.013 28.825 23.095 29.131 28.712 29.33C38.805 29.688 42 30.703 42 33.551Z" fill="#0E5B5E"/>
<path d="M16.688 41.646C15.383 42.95 16.006 44 18.083 44C19.247 44 19.992 43.476 19.771 42.813C19.284 41.351 17.614 40.719 16.688 41.646Z" fill="#F3EFE6"/>
</svg>
